<?xml version="1.0" standalone="no"?>
<!DOCTYPE svg PUBLIC "-//W3C//DTD SVG 20010904//EN"
        "http://www.w3.org/TR/2001/REC-SVG-20010904/DTD/svg10.dtd">
<svg version="1.0" xmlns="http://www.w3.org/2000/svg"
     width="545.000000pt" height="549.000000pt" viewBox="0 470 405.000000 380.000000"
     preserveAspectRatio="xMidYMid meet">

    <g transform="translate(0.000000,865.000000) scale(0.100000,-0.100000)"
       fill="currentColor" stroke="none">
        <path d="M1440 3970 l0 -120 -240 0 -240 0 0 -120 0 -120 -120 0 -120 0 0
-120 0 -120 -120 0 -120 0 0 -120 0 -120 -120 0 -120 0 0 -240 0 -240 -120 0
-120 0 0 -600 0 -600 120 0 120 0 0 -240 0 -240 120 0 120 0 0 -120 0 -120
120 0 120 0 0 -120 0 -120 120 0 120 0 0 -120 0 -120 240 0 240 0 0 -120 0
-120 605 0 605 0 0 120 0 120 240 0 240 0 0 120 0 120 120 0 120 0 0 120 0
120 120 0 120 0 0 120 0 120 120 0 120 0 0 240 0 240 120 0 120 0 0 600 0 600
-120 0 -120 0 0 240 0 240 -120 0 -120 0 0 120 0 120 -120 0 -120 0 0 120 0
120 -120 0 -120 0 0 120 0 120 -240 0 -240 0 0 120 0 120 -605 0 -605 0 0
-120z m1200 -240 l0 -120 240 0 240 0 0 -120 0 -120 120 0 120 0 0 -120 0
-120 120 0 120 0 0 -240 0 -240 120 0 120 0 0 -240 0 -240 -120 0 -120 0 0
-120 0 -120 120 0 120 0 0 -240 0 -240 -120 0 -120 0 0 -240 0 -240 -120 0
-120 0 0 -120 0 -120 -120 0 -120 0 0 -120 0 -120 -240 0 -240 0 0 -120 0
-120 -600 0 -600 0 0 120 0 120 -240 0 -240 0 0 120 0 120 -120 0 -120 0 0
120 0 120 -120 0 -120 0 0 240 0 240 -120 0 -120 0 0 240 0 240 120 0 120 0 0
120 0 120 -120 0 -120 0 0 240 0 240 120 0 120 0 0 240 0 240 120 0 120 0 0
120 0 120 120 0 120 0 0 120 0 120 240 0 240 0 0 120 0 120 600 0 600 0 0
-120z"/>
        <path d="M960 2770 l0 -120 -120 0 -120 0 0 -120 0 -120 -120 0 -120 0 0 -120
0 -120 120 0 120 0 0 120 0 120 120 0 120 0 0 -120 0 -120 120 0 120 0 0 -120
0 -120 240 0 240 0 0 120 0 120 120 0 120 0 0 240 0 240 120 0 120 0 0 -240 0
-240 120 0 120 0 0 -120 0 -120 240 0 240 0 0 120 0 120 120 0 120 0 0 120 0
120 120 0 120 0 0 -120 0 -120 120 0 120 0 0 120 0 120 -120 0 -120 0 0 120 0
120 -120 0 -120 0 0 120 0 120 -1080 0 -1080 0 0 -120z"/>
        <path d="M1200 1090 l0 -120 120 0 120 0 0 -120 0 -120 600 0 600 0 0 120 0
120 120 0 120 0 0 120 0 120 -120 0 -120 0 0 -120 0 -120 -600 0 -600 0 0 120
0 120 -120 0 -120 0 0 -120z"/>
    </g>
</svg>
